<svg xmlns="http://www.w3.org/2000/svg" xmlns:xlink="http://www.w3.org/1999/xlink" viewBox="0 0 1200 300" fill="none">
  <defs>
    <linearGradient id="bg" x1="0%" y1="0%" x2="100%" y2="100%">
      <stop offset="0%" style="stop-color:#0f0f0f"/>
      <stop offset="50%" style="stop-color:#1a1a2e"/>
      <stop offset="100%" style="stop-color:#0f0f0f"/>
    </linearGradient>
    <linearGradient id="solGrad" x1="0%" y1="0%" x2="100%" y2="100%">
      <stop offset="0%" style="stop-color:#9945FF"/>
      <stop offset="50%" style="stop-color:#14F195"/>
      <stop offset="100%" style="stop-color:#00D1FF"/>
    </linearGradient>
    <linearGradient id="lineGrad" x1="0%" y1="0%" x2="100%" y2="0%">
      <stop offset="0%" style="stop-color:#9945FF;stop-opacity:0"/>
      <stop offset="20%" style="stop-color:#9945FF;stop-opacity:1"/>
      <stop offset="50%" style="stop-color:#14F195;stop-opacity:1"/>
      <stop offset="80%" style="stop-color:#00D1FF;stop-opacity:1"/>
      <stop offset="100%" style="stop-color:#00D1FF;stop-opacity:0"/>
    </linearGradient>
    <!-- Official Solana gradients -->
    <linearGradient id="solBar1" gradientUnits="userSpaceOnUse" x1="72.18" y1="70.29" x2="28.24" y2="-13.86" gradientTransform="matrix(1 0 0 -1 0 62.84)">
      <stop offset="0" style="stop-color:#00FFA3"/>
      <stop offset="1" style="stop-color:#DC1FFF"/>
    </linearGradient>
    <linearGradient id="solBar2" gradientUnits="userSpaceOnUse" x1="52.98" y1="80.33" x2="9.04" y2="-3.82" gradientTransform="matrix(1 0 0 -1 0 62.84)">
      <stop offset="0" style="stop-color:#00FFA3"/>
      <stop offset="1" style="stop-color:#DC1FFF"/>
    </linearGradient>
    <linearGradient id="solBar3" gradientUnits="userSpaceOnUse" x1="62.53" y1="75.38" x2="18.59" y2="-8.81" gradientTransform="matrix(1 0 0 -1 0 62.84)">
      <stop offset="0" style="stop-color:#00FFA3"/>
      <stop offset="1" style="stop-color:#DC1FFF"/>
    </linearGradient>
    <filter id="glow">
      <feGaussianBlur stdDeviation="2" result="blur"/>
      <feMerge>
        <feMergeNode in="blur"/>
        <feMergeNode in="SourceGraphic"/>
      </feMerge>
    </filter>
  </defs>

  <!-- Background -->
  <rect width="1200" height="300" fill="url(#bg)" rx="16"/>

  <!-- Grid pattern -->
  <g opacity="0.04" stroke="#14F195">
    <line x1="0" y1="60" x2="1200" y2="60"/>
    <line x1="0" y1="120" x2="1200" y2="120"/>
    <line x1="0" y1="180" x2="1200" y2="180"/>
    <line x1="0" y1="240" x2="1200" y2="240"/>
    <line x1="200" y1="0" x2="200" y2="300"/>
    <line x1="400" y1="0" x2="400" y2="300"/>
    <line x1="600" y1="0" x2="600" y2="300"/>
    <line x1="800" y1="0" x2="800" y2="300"/>
    <line x1="1000" y1="0" x2="1000" y2="300"/>
  </g>

  <!-- Decorative dots -->
  <circle cx="100" cy="80" r="2" fill="#9945FF" opacity="0.3"/>
  <circle cx="180" cy="45" r="1.5" fill="#14F195" opacity="0.4"/>
  <circle cx="1050" cy="70" r="2" fill="#00D1FF" opacity="0.3"/>
  <circle cx="1100" cy="230" r="1.5" fill="#9945FF" opacity="0.3"/>
  <circle cx="150" cy="250" r="1.5" fill="#14F195" opacity="0.2"/>

  <!-- Official Solana logo (scaled to ~80x63, positioned left of title) -->
  <g transform="translate(72, 102) scale(0.2)" filter="url(#glow)">
    <!-- Bottom bar -->
    <path fill="url(#solBar1)" d="M64.6,237.9c2.4-2.4,5.7-3.8,9.2-3.8h317.4c5.8,0,8.7,7,4.6,11.1l-62.7,62.7c-2.4,2.4-5.7,3.8-9.2,3.8H6.5c-5.8,0-8.7-7-4.6-11.1L64.6,237.9z"/>
    <!-- Top bar -->
    <path fill="url(#solBar2)" d="M64.6,3.8C67.1,1.4,70.4,0,73.8,0h317.4c5.8,0,8.7,7,4.6,11.1l-62.7,62.7c-2.4,2.4-5.7,3.8-9.2,3.8H6.5c-5.8,0-8.7-7-4.6-11.1L64.6,3.8z"/>
    <!-- Middle bar -->
    <path fill="url(#solBar3)" d="M333.1,120.1c-2.4-2.4-5.7-3.8-9.2-3.8H6.5c-5.8,0-8.7,7-4.6,11.1l62.7,62.7c2.4,2.4,5.7,3.8,9.2,3.8h317.4c5.8,0,8.7-7,4.6-11.1L333.1,120.1z"/>
  </g>

  <!-- Title -->
  <text x="175" y="145" font-family="system-ui, -apple-system, 'Segoe UI', sans-serif" font-size="56" font-weight="800" letter-spacing="-2">
    <tspan fill="#ffffff">Solana </tspan>
    <tspan fill="url(#solGrad)">TOOLKIT</tspan>
  </text>

  <!-- Subtitle -->
  <text x="178" y="178" font-family="system-ui, -apple-system, 'Segoe UI', sans-serif" font-size="18" fill="#888888" font-weight="400" letter-spacing="0.5">
    From scaffold to mainnet — build, test, audit, deploy
  </text>

  <!-- Gradient line separator -->
  <rect x="100" y="200" width="1000" height="1.5" fill="url(#lineGrad)" rx="1"/>

  <!-- Feature badges -->
  <g transform="translate(178, 225)" font-family="'SF Mono', 'Fira Code', monospace" font-size="12" font-weight="600">
    <!-- Anchor -->
    <rect x="0" y="0" width="80" height="28" rx="6" fill="#9945FF" fill-opacity="0.12" stroke="#9945FF" stroke-opacity="0.3" stroke-width="1"/>
    <text x="40" y="18" fill="#9945FF" text-anchor="middle">Anchor</text>

    <!-- AI Agents -->
    <rect x="96" y="0" width="100" height="28" rx="6" fill="#14F195" fill-opacity="0.12" stroke="#14F195" stroke-opacity="0.3" stroke-width="1"/>
    <text x="146" y="18" fill="#14F195" text-anchor="middle">15 AI Agents</text>

    <!-- Fuzz -->
    <rect x="212" y="0" width="100" height="28" rx="6" fill="#00D1FF" fill-opacity="0.12" stroke="#00D1FF" stroke-opacity="0.3" stroke-width="1"/>
    <text x="262" y="18" fill="#00D1FF" text-anchor="middle">Fuzz Testing</text>

    <!-- Formal Verification -->
    <rect x="328" y="0" width="140" height="28" rx="6" fill="#9945FF" fill-opacity="0.12" stroke="#9945FF" stroke-opacity="0.3" stroke-width="1"/>
    <text x="398" y="18" fill="#9945FF" text-anchor="middle">Formal Verification</text>

    <!-- CI/CD -->
    <rect x="484" y="0" width="68" height="28" rx="6" fill="#14F195" fill-opacity="0.12" stroke="#14F195" stroke-opacity="0.3" stroke-width="1"/>
    <text x="518" y="18" fill="#14F195" text-anchor="middle">CI/CD</text>

    <!-- E2E -->
    <rect x="568" y="0" width="80" height="28" rx="6" fill="#00D1FF" fill-opacity="0.12" stroke="#00D1FF" stroke-opacity="0.3" stroke-width="1"/>
    <text x="608" y="18" fill="#00D1FF" text-anchor="middle">E2E Tests</text>
  </g>
</svg>
